<svg xmlns="http://www.w3.org/2000/svg" xmlns:xlink="http://www.w3.org/1999/xlink" width="200" zoomAndPan="magnify" viewBox="0 0 150 56.249996" height="75" preserveAspectRatio="xMidYMid meet" version="1.0"><defs><g/><clipPath id="6cc68bf7c9"><path d="M 117 13 L 132 13 L 132 29 L 117 29 Z M 117 13 " clip-rule="nonzero"/></clipPath><clipPath id="ad8ee352b6"><path d="M 114.457031 16.046875 L 124.785156 6.5 L 138.851562 21.71875 L 128.523438 31.265625 Z M 114.457031 16.046875 " clip-rule="nonzero"/></clipPath><clipPath id="54f1f05cfd"><path d="M 114.457031 16.046875 L 124.785156 6.5 L 138.851562 21.71875 L 128.523438 31.265625 Z M 114.457031 16.046875 " clip-rule="nonzero"/></clipPath><clipPath id="8a460740a9"><path d="M 124 7 L 139 7 L 139 22 L 124 22 Z M 124 7 " clip-rule="nonzero"/></clipPath><clipPath id="ff1d7cbd00"><path d="M 121.710938 9.328125 L 132.039062 -0.21875 L 146.105469 15 L 135.777344 24.546875 Z M 121.710938 9.328125 " clip-rule="nonzero"/></clipPath><clipPath id="2552da2065"><path d="M 121.710938 9.328125 L 132.039062 -0.21875 L 146.105469 15 L 135.777344 24.546875 Z M 121.710938 9.328125 " clip-rule="nonzero"/></clipPath></defs><g clip-path="url(#6cc68bf7c9)"><g clip-path="url(#ad8ee352b6)"><g clip-path="url(#54f1f05cfd)"><path fill="#00adef" d="M 131.621094 14.375 L 119.351562 13.828125 C 116.980469 13.722656 116.578125 18.339844 119.386719 18.417969 L 127.023438 18.625 L 126.441406 26.308594 C 126.261719 28.644531 130.824219 28.894531 130.957031 26.515625 Z M 131.621094 14.375 " fill-opacity="1" fill-rule="nonzero"/></g></g></g><g clip-path="url(#8a460740a9)"><g clip-path="url(#ff1d7cbd00)"><g clip-path="url(#2552da2065)"><path fill="#3a73c1" d="M 138.875 7.65625 L 126.605469 7.109375 C 124.234375 7.007812 123.832031 11.621094 126.640625 11.699219 L 134.277344 11.90625 L 133.695312 19.589844 C 133.515625 21.929688 138.078125 22.175781 138.210938 19.796875 Z M 138.875 7.65625 " fill-opacity="1" fill-rule="nonzero"/></g></g></g><g fill="#373643" fill-opacity="1"><g transform="translate(8.369535, 43.727294)"><g><path d="M 11.46875 -19.46875 C 13.320312 -19.46875 14.941406 -19.0625 16.328125 -18.25 C 17.710938 -17.4375 18.785156 -16.296875 19.546875 -14.828125 C 20.316406 -13.367188 20.703125 -11.675781 20.703125 -9.75 C 20.703125 -7.75 20.316406 -5.984375 19.546875 -4.453125 C 18.785156 -2.929688 17.726562 -1.742188 16.375 -0.890625 C 15.03125 -0.046875 13.445312 0.375 11.625 0.375 C 10.769531 0.375 9.84375 0.222656 8.84375 -0.078125 C 7.84375 -0.378906 6.929688 -0.800781 6.109375 -1.34375 L 6.109375 4.390625 C 6.109375 5.015625 5.890625 5.488281 5.453125 5.8125 C 5.015625 6.132812 4.535156 6.296875 4.015625 6.296875 C 3.460938 6.296875 2.96875 6.132812 2.53125 5.8125 C 2.09375 5.488281 1.875 5.015625 1.875 4.390625 L 1.875 -17.171875 C 1.875 -17.773438 2.066406 -18.242188 2.453125 -18.578125 C 2.835938 -18.921875 3.367188 -19.09375 4.046875 -19.09375 C 5.171875 -19.09375 5.832031 -18.65625 6.03125 -17.78125 C 6.90625 -18.40625 7.816406 -18.84375 8.765625 -19.09375 C 9.722656 -19.34375 10.625 -19.46875 11.46875 -19.46875 Z M 11.515625 -3.40625 C 12.984375 -3.40625 14.164062 -3.988281 15.0625 -5.15625 C 15.96875 -6.320312 16.421875 -7.84375 16.421875 -9.71875 C 16.421875 -11.488281 15.9375 -12.921875 14.96875 -14.015625 C 14.007812 -15.117188 12.742188 -15.671875 11.171875 -15.671875 C 10.171875 -15.671875 9.195312 -15.414062 8.25 -14.90625 C 7.300781 -14.394531 6.585938 -13.664062 6.109375 -12.71875 L 6.109375 -6.484375 C 6.515625 -5.515625 7.226562 -4.757812 8.25 -4.21875 C 9.269531 -3.675781 10.359375 -3.40625 11.515625 -3.40625 Z M 11.515625 -3.40625 "/></g></g></g><g fill="#373643" fill-opacity="1"><g transform="translate(30.189785, 43.727294)"><g><path d="M 10.125 -19.09375 C 10.800781 -19.09375 11.335938 -18.945312 11.734375 -18.65625 C 12.140625 -18.363281 12.34375 -17.894531 12.34375 -17.25 C 12.34375 -16.644531 12.140625 -16.164062 11.734375 -15.8125 C 11.335938 -15.46875 10.800781 -15.296875 10.125 -15.296875 C 8.550781 -15.296875 7.441406 -14.734375 6.796875 -13.609375 C 6.160156 -12.484375 5.84375 -10.957031 5.84375 -9.03125 L 5.84375 -1.90625 C 5.84375 -1.363281 5.644531 -0.910156 5.25 -0.546875 C 4.851562 -0.179688 4.363281 0 3.78125 0 C 3.132812 0 2.609375 -0.179688 2.203125 -0.546875 C 1.804688 -0.910156 1.609375 -1.363281 1.609375 -1.90625 L 1.609375 -17.171875 C 1.609375 -17.773438 1.835938 -18.242188 2.296875 -18.578125 C 2.765625 -18.921875 3.257812 -19.09375 3.78125 -19.09375 C 4.3125 -19.09375 4.785156 -18.925781 5.203125 -18.59375 C 5.628906 -18.269531 5.84375 -17.796875 5.84375 -17.171875 L 5.84375 -16.953125 C 6.394531 -17.671875 7.03125 -18.207031 7.75 -18.5625 C 8.476562 -18.914062 9.269531 -19.09375 10.125 -19.09375 Z M 10.125 -19.09375 "/></g></g></g><g fill="#373643" fill-opacity="1"><g transform="translate(41.399704, 43.727294)"><g><path d="M 10.71875 -19.46875 C 12.71875 -19.46875 14.46875 -19.046875 15.96875 -18.203125 C 17.46875 -17.367188 18.628906 -16.203125 19.453125 -14.703125 C 20.285156 -13.203125 20.703125 -11.453125 20.703125 -9.453125 C 20.671875 -7.503906 20.238281 -5.789062 19.40625 -4.3125 C 18.570312 -2.832031 17.410156 -1.679688 15.921875 -0.859375 C 14.429688 -0.0351562 12.695312 0.375 10.71875 0.375 C 8.769531 0.375 7.046875 -0.0351562 5.546875 -0.859375 C 4.046875 -1.679688 2.875 -2.832031 2.03125 -4.3125 C 1.195312 -5.789062 0.769531 -7.503906 0.75 -9.453125 C 0.75 -11.453125 1.164062 -13.203125 2 -14.703125 C 2.84375 -16.203125 4.015625 -17.367188 5.515625 -18.203125 C 7.015625 -19.046875 8.75 -19.46875 10.71875 -19.46875 Z M 10.71875 -3.375 C 12.425781 -3.375 13.785156 -3.9375 14.796875 -5.0625 C 15.804688 -6.1875 16.3125 -7.648438 16.3125 -9.453125 C 16.3125 -11.296875 15.804688 -12.800781 14.796875 -13.96875 C 13.785156 -15.132812 12.425781 -15.71875 10.71875 -15.71875 C 9.050781 -15.71875 7.703125 -15.132812 6.671875 -13.96875 C 5.648438 -12.800781 5.140625 -11.296875 5.140625 -9.453125 C 5.140625 -7.648438 5.648438 -6.1875 6.671875 -5.0625 C 7.703125 -3.9375 9.050781 -3.375 10.71875 -3.375 Z M 10.71875 -3.375 "/></g></g></g><g fill="#373643" fill-opacity="1"><g transform="translate(62.207664, 43.727294)"><g><path d="M 17.46875 -24.265625 C 18 -24.265625 18.492188 -24.113281 18.953125 -23.8125 C 19.421875 -23.507812 19.65625 -23.035156 19.65625 -22.390625 L 19.65625 -1.90625 C 19.65625 -0.632812 18.925781 0 17.46875 0 C 16.175781 0 15.503906 -0.597656 15.453125 -1.796875 C 14.648438 -1.097656 13.75 -0.566406 12.75 -0.203125 C 11.75 0.160156 10.800781 0.34375 9.90625 0.34375 C 8.03125 0.34375 6.410156 -0.0820312 5.046875 -0.9375 C 3.679688 -1.789062 2.632812 -2.976562 1.90625 -4.5 C 1.1875 -6.019531 0.828125 -7.769531 0.828125 -9.75 C 0.828125 -11.644531 1.210938 -13.316406 1.984375 -14.765625 C 2.765625 -16.222656 3.847656 -17.367188 5.234375 -18.203125 C 6.617188 -19.046875 8.222656 -19.46875 10.046875 -19.46875 C 10.867188 -19.46875 11.753906 -19.300781 12.703125 -18.96875 C 13.660156 -18.644531 14.550781 -18.160156 15.375 -17.515625 L 15.375 -22.390625 C 15.375 -23.035156 15.59375 -23.507812 16.03125 -23.8125 C 16.46875 -24.113281 16.945312 -24.265625 17.46875 -24.265625 Z M 10.015625 -3.453125 C 11.265625 -3.453125 12.394531 -3.734375 13.40625 -4.296875 C 14.414062 -4.859375 15.097656 -5.675781 15.453125 -6.75 L 15.40625 -12.53125 C 14.988281 -13.550781 14.296875 -14.328125 13.328125 -14.859375 C 12.367188 -15.398438 11.375 -15.671875 10.34375 -15.671875 C 8.769531 -15.671875 7.5 -15.101562 6.53125 -13.96875 C 5.570312 -12.832031 5.09375 -11.414062 5.09375 -9.71875 C 5.09375 -7.882812 5.539062 -6.378906 6.4375 -5.203125 C 7.34375 -4.035156 8.535156 -3.453125 10.015625 -3.453125 Z M 10.015625 -3.453125 "/></g></g></g><g fill="#373643" fill-opacity="1"><g transform="translate(83.915429, 43.727294)"><g><path d="M 5.625 -21.90625 C 5.625 -21.28125 5.390625 -20.8125 4.921875 -20.5 C 4.460938 -20.1875 3.972656 -20.03125 3.453125 -20.03125 C 2.898438 -20.03125 2.398438 -20.1875 1.953125 -20.5 C 1.503906 -20.8125 1.28125 -21.28125 1.28125 -21.90625 L 1.28125 -22.390625 C 1.28125 -23.035156 1.503906 -23.507812 1.953125 -23.8125 C 2.398438 -24.113281 2.898438 -24.265625 3.453125 -24.265625 C 3.972656 -24.265625 4.460938 -24.113281 4.921875 -23.8125 C 5.390625 -23.507812 5.625 -23.035156 5.625 -22.390625 Z M 1.3125 -17.25 C 1.3125 -17.851562 1.539062 -18.3125 2 -18.625 C 2.46875 -18.9375 2.953125 -19.09375 3.453125 -19.09375 C 3.972656 -19.09375 4.457031 -18.9375 4.90625 -18.625 C 5.363281 -18.3125 5.59375 -17.863281 5.59375 -17.28125 L 5.59375 -1.84375 C 5.59375 -1.21875 5.363281 -0.753906 4.90625 -0.453125 C 4.457031 -0.148438 3.972656 0 3.453125 0 C 2.953125 0 2.46875 -0.148438 2 -0.453125 C 1.539062 -0.753906 1.3125 -1.21875 1.3125 -1.84375 Z M 1.3125 -17.25 "/></g></g></g><g fill="#373643" fill-opacity="1"><g transform="translate(90.063875, 43.727294)"><g><path d="M 8.625 -21.15625 C 8.175781 -21.15625 7.765625 -21.003906 7.390625 -20.703125 C 7.015625 -20.398438 6.828125 -19.9375 6.828125 -19.3125 L 6.828125 -18.671875 L 9.296875 -18.671875 C 9.921875 -18.671875 10.375 -18.484375 10.65625 -18.109375 C 10.945312 -17.734375 11.09375 -17.332031 11.09375 -16.90625 C 11.09375 -16.457031 10.945312 -16.050781 10.65625 -15.6875 C 10.375 -15.332031 9.921875 -15.15625 9.296875 -15.15625 L 6.828125 -15.15625 L 6.828125 -1.875 C 6.828125 -1.25 6.597656 -0.78125 6.140625 -0.46875 C 5.691406 -0.15625 5.207031 0 4.6875 0 C 4.132812 0 3.640625 -0.15625 3.203125 -0.46875 C 2.765625 -0.78125 2.546875 -1.25 2.546875 -1.875 L 2.546875 -15.15625 L 1.578125 -15.15625 C 0.953125 -15.15625 0.472656 -15.332031 0.140625 -15.6875 C -0.179688 -16.050781 -0.34375 -16.457031 -0.34375 -16.90625 C -0.34375 -17.332031 -0.179688 -17.734375 0.140625 -18.109375 C 0.472656 -18.484375 0.953125 -18.671875 1.578125 -18.671875 L 2.546875 -18.671875 L 2.546875 -19.3125 C 2.546875 -20.488281 2.828125 -21.484375 3.390625 -22.296875 C 3.953125 -23.109375 4.6875 -23.722656 5.59375 -24.140625 C 6.507812 -24.566406 7.46875 -24.78125 8.46875 -24.78125 C 9.195312 -24.78125 9.910156 -24.679688 10.609375 -24.484375 C 11.304688 -24.285156 11.945312 -23.9375 12.53125 -23.4375 C 13 -23.007812 13.226562 -22.546875 13.21875 -22.046875 C 13.207031 -21.546875 13.03125 -21.109375 12.6875 -20.734375 C 12.351562 -20.359375 11.9375 -20.132812 11.4375 -20.0625 C 10.9375 -19.988281 10.4375 -20.175781 9.9375 -20.625 C 9.582031 -20.976562 9.144531 -21.15625 8.625 -21.15625 Z M 8.625 -21.15625 "/></g></g></g><g fill="#373643" fill-opacity="1"><g transform="translate(101.761185, 43.727294)"><g><path d="M 17.46875 -19.09375 C 18.125 -19.09375 18.679688 -18.8125 19.140625 -18.25 C 19.609375 -17.6875 19.703125 -17.03125 19.421875 -16.28125 L 8.46875 5.21875 C 8.21875 5.6875 7.898438 6.054688 7.515625 6.328125 C 7.128906 6.609375 6.722656 6.75 6.296875 6.75 C 5.867188 6.75 5.472656 6.601562 5.109375 6.3125 C 4.753906 6.03125 4.503906 5.660156 4.359375 5.203125 C 4.222656 4.753906 4.28125 4.28125 4.53125 3.78125 L 7.390625 -1.84375 L 0 -16.125 C -0.226562 -16.625 -0.257812 -17.097656 -0.09375 -17.546875 C 0.0703125 -17.992188 0.34375 -18.363281 0.71875 -18.65625 C 1.09375 -18.945312 1.503906 -19.09375 1.953125 -19.09375 C 2.347656 -19.09375 2.734375 -18.96875 3.109375 -18.71875 C 3.484375 -18.46875 3.757812 -18.140625 3.9375 -17.734375 L 9.71875 -6.453125 L 15.484375 -17.78125 C 15.660156 -18.175781 15.921875 -18.492188 16.265625 -18.734375 C 16.617188 -18.972656 17.019531 -19.09375 17.46875 -19.09375 Z M 17.46875 -19.09375 "/></g></g></g></svg>