<?xml version="1.0" encoding="utf-8"?>
<!-- Generator: Adobe Illustrator 25.0.0, SVG Export Plug-In . SVG Version: 6.00 Build 0)  -->
<svg version="1.1" xmlns="http://www.w3.org/2000/svg" xmlns:xlink="http://www.w3.org/1999/xlink" x="0px" y="0px"
	 viewBox="0 0 3710 3710" style="enable-background:new 0 0 3710 3710;" xml:space="preserve">
<style type="text/css">
	.st0{opacity:0;}
	.st1{fill:#FF0000;}
	.st2{fill:url(#SVGID_1_);}
	.st3{fill:#91B3FA;}
	.st4{fill:#7D97F4;}
	.st5{fill:#BDD0FB;}
	.st6{fill:url(#SVGID_2_);}
	.st7{fill:url(#SVGID_3_);}
	.st8{opacity:0.57;}
	.st9{opacity:0.67;}
	.st10{fill:#FFFFFF;}
	.st11{fill:url(#SVGID_4_);}
	.st12{fill:url(#SVGID_5_);}
	.st13{fill:url(#SVGID_6_);}
	.st14{fill:url(#SVGID_7_);}
	.st15{fill:url(#SVGID_8_);}
	.st16{fill:url(#SVGID_9_);}
	.st17{fill:url(#SVGID_10_);}
	.st18{fill:url(#SVGID_11_);}
	.st19{fill:url(#SVGID_12_);}
	.st20{fill:url(#SVGID_13_);}
	.st21{fill:url(#SVGID_14_);}
	.st22{fill:url(#SVGID_15_);}
	.st23{fill:url(#SVGID_16_);}
	.st24{opacity:0.67;fill:#FFFFFF;}
	.st25{fill:url(#SVGID_17_);}
	.st26{fill:url(#SVGID_18_);}
	.st27{fill:url(#SVGID_19_);}
	.st28{fill:url(#SVGID_20_);}
	.st29{opacity:0.78;}
	.st30{fill:url(#SVGID_21_);}
	.st31{opacity:0.6;fill:#FFFFFF;}
	.st32{opacity:0.61;fill:#FFFFFF;}
	.st33{opacity:0.73;fill:#FFFFFF;}
	.st34{fill:url(#SVGID_22_);}
	.st35{fill:url(#SVGID_23_);}
	.st36{fill:url(#SVGID_24_);}
	.st37{fill:url(#SVGID_25_);}
	.st38{opacity:0.78;fill:#FFFFFF;}
	.st39{fill:url(#SVGID_26_);}
	.st40{fill:url(#SVGID_27_);}
	.st41{fill:url(#SVGID_28_);}
	.st42{fill:url(#SVGID_29_);}
	.st43{fill:url(#SVGID_30_);}
	.st44{fill:url(#SVGID_31_);}
	.st45{fill:url(#SVGID_32_);}
	.st46{fill:url(#SVGID_33_);}
	.st47{fill:url(#SVGID_34_);}
	.st48{fill:url(#SVGID_35_);}
	.st49{fill:url(#SVGID_36_);}
	.st50{fill:url(#SVGID_37_);}
	.st51{fill:url(#SVGID_38_);}
	.st52{fill:url(#SVGID_39_);}
	.st53{fill:url(#SVGID_40_);}
	.st54{fill:url(#SVGID_41_);}
	.st55{fill:url(#SVGID_42_);}
	.st56{fill:url(#SVGID_43_);}
	.st57{fill:url(#SVGID_44_);}
	.st58{fill:url(#SVGID_45_);}
	.st59{fill:url(#SVGID_46_);}
	.st60{fill:url(#SVGID_47_);}
	.st61{fill:url(#SVGID_48_);}
	.st62{fill:url(#SVGID_49_);}
	.st63{fill:url(#SVGID_50_);}
	.st64{fill:url(#SVGID_51_);}
	.st65{fill:url(#SVGID_52_);}
	.st66{fill:url(#SVGID_53_);}
	.st67{fill:url(#SVGID_54_);}
	.st68{opacity:0.5;fill:#FFFFFF;}
	.st69{fill:url(#SVGID_55_);}
	.st70{fill:url(#SVGID_56_);}
	.st71{fill:url(#SVGID_57_);}
</style>
<g id="Background">
	<g class="st0">
		<g>
			<rect class="st1" width="3710" height="3710"/>
		</g>
	</g>
</g>
<g id="Illustration">
	<g>
		
			<linearGradient id="SVGID_1_" gradientUnits="userSpaceOnUse" x1="-3151.2136" y1="5303.5229" x2="-5164.5645" y2="3130.3821" gradientTransform="matrix(-0.9973 0.0997 -0.0987 -0.9865 -2489.2363 5830.832)">
			<stop  offset="0" style="stop-color:#DAE3FE"/>
			<stop  offset="1" style="stop-color:#E9EFFD"/>
		</linearGradient>
		<path class="st2" d="M531.99,1478.48C744.12,812.97,1445.06,466.13,2020.4,455.78c157.09-2.83,473.16-8.51,740.85,195.97
			c514.07,392.71,533.59,1319.08,137.69,1905.22c-50.98,75.48-405.43,582.49-1031.16,638.76
			c-458.12,41.19-804.93-182.4-847.18-210.35c-53.37-35.31-171.77-120.06-285.02-261.97
			C469.46,2389.98,399.43,1894.36,531.99,1478.48z"/>
		<g>
			<g>
				<path class="st3" d="M2471.89,2197.95c0,0-8.99-377.97,165.1-479.14c174.09-101.16,505.1-164.41,517.5-707.14
					c7.26-317.74,15.13-456.66,20.4-517.24c2.06-23.63-18.94-42.7-42.25-38.31c-164.88,31.06-700.5,158.91-812.79,524.49
					C2186.72,1414.01,2471.89,2197.95,2471.89,2197.95z"/>
				<path class="st4" d="M3005.13,607.12c-180.99,161.41-390.26,447.09-501.81,732.76c-14.32,47.08-56.2,147.2-74.39,325.09
					c-16.24,148.36-8.17,305.14,11.53,408.92c1.25,6.56,7.57,10.87,14.13,9.62c11.28-2.14,9.78-14.27,9.68-13.89
					c-22.5-177.31-13.16-397.99,38.39-597.12c65.86-244.5,212.74-481.55,364.67-682.61l15.63-19.8
					c117.71-151.16,142.49-152.28,131.48-162.81C3011.85,604.8,3007.78,604.78,3005.13,607.12z"/>
			</g>
			<g>
				<path class="st5" d="M2259.88,2790.23c-23.54,11.57,222.68-298.7,299.41-785.69c36.16-229.48,36.34-516.96,166.93-627.88
					c106.69-90.62,397.14-146.13,499.89-163.41c16.8-2.83,30.65,13.08,25.54,29.34c-27.19,86.53-97.46,311.59-131.33,433.37
					c-42.52,152.88-187.72,250.25-317.79,276.69c-130.06,26.44-202.4,52.05-265.56,260.15
					C2473.81,2420.91,2326.77,2757.35,2259.88,2790.23z"/>
				<path class="st3" d="M3098.49,1384.36c-151.26,32.28-302.97,129.58-363.78,274.04l-5.72,13.77
					c-13.13,32.24-80.4,257.01-108.12,438.57c-0.34,2.26,1.21,4.38,3.47,4.72c3.84,0.59,4.99-3.73,4.7-3.32
					c23.16-103.84,59.21-236.63,88.94-336.4c31.59-108.73,54.08-182.55,154-266.58c111.62-91.18,228.43-118.48,228.09-118.35
					c1.77-0.49,2.81-2.32,2.32-4.09C3101.92,1385.02,3100.19,1384,3098.49,1384.36z"/>
			</g>
		</g>
		<g>
			<g>
				<linearGradient id="SVGID_2_" gradientUnits="userSpaceOnUse" x1="1879.2625" y1="751.104" x2="1806.666" y2="3120.8359">
					<stop  offset="0" style="stop-color:#09005D"/>
					<stop  offset="1" style="stop-color:#1A0F91"/>
				</linearGradient>
				<path class="st6" d="M586.73,2876.22c0,24.81,20.32,45.11,45.15,45.11h2441.68c24.83,0,45.15-20.3,45.15-45.11l20.32-1403.17
					c0-24.81-29.23-73.25-82.8-69.61L669.95,1341.7c-31.16-0.81-61.29,11.19-83.35,33.18c-22.07,21.99-34.14,52.06-33.4,83.19
					L586.73,2876.22z"/>
				<path class="st4" d="M631.31,2832.94c0,23.49,19.22,42.72,42.72,42.72h2340.66c23.49,0,42.72-19.22,42.72-42.72l19.17-1273.81
					c-2.26-76.65-69.46-104.21-110.2-102.58L679.34,1395.2c-21.89-0.59-43.06,7.85-58.56,23.31c-15.5,15.46-24.03,36.63-23.48,58.52
					L631.31,2832.94z"/>
				<path class="st3" d="M677.52,2798.27c0,22.48,18.67,40.88,41.48,40.88h2273.02c22.82,0,41.48-18.4,41.48-40.88l18.62-1219.05
					c-2.19-73.36-67.46-99.73-107.02-98.17l-2220.95-58.72c-21.26-0.56-41.81,7.51-56.87,22.31c-15.06,14.8-23.34,35.05-22.8,56.01
					L677.52,2798.27z"/>
				<g>
					<path class="st5" d="M3032.1,2052.74c-0.03,0-0.06,0-0.09,0c-3.46-0.04-6.22-2.23-6.17-4.9l1.52-79.71
						c0.05-2.64,2.84-4.76,6.25-4.76c0.03,0,0.06,0,0.09,0c3.46,0.04,6.22,2.23,6.17,4.9l-1.52,79.71
						C3038.31,2050.63,3035.52,2052.74,3032.1,2052.74z"/>
					<path class="st5" d="M3035.82,1857.41c-0.03,0-0.06,0-0.09,0c-3.46-0.04-6.22-2.24-6.17-4.9l5.81-305.3
						c-0.11-18.13-7.24-32.61-21.2-42.94c-26.06-19.27-67.44-18.28-69.19-18.22l-730.99-15.13c-3.46-0.07-6.18-2.29-6.09-4.96
						c0.09-2.67,2.75-4.94,6.43-4.7l730.55,15.13c4.55-0.21,48.6-0.8,77.94,20.9c16.51,12.2,24.94,29.02,25.06,49.96l-5.81,305.4
						C3042.03,1855.29,3039.23,1857.41,3035.82,1857.41z"/>
				</g>
				<linearGradient id="SVGID_3_" gradientUnits="userSpaceOnUse" x1="1811.9161" y1="2869.0505" x2="1359.0995" y2="957.1529">
					<stop  offset="0" style="stop-color:#09005D"/>
					<stop  offset="1" style="stop-color:#1A0F91"/>
				</linearGradient>
				<path class="st7" d="M462.93,3037.81h2748.72c3.11,0,5.65-2.54,5.65-5.65v-111.98c0-3.11-2.54-5.65-5.65-5.65H462.93
					c-3.11,0-5.65,2.54-5.65,5.65v111.98C457.27,3035.27,459.82,3037.81,462.93,3037.81z"/>
			</g>
			<g>
				<g class="st8">
					<g class="st9">
						<rect x="690.17" y="1833.19" class="st10" width="142.44" height="991.08"/>
					</g>
					<g class="st9">
						<rect x="881.47" y="1833.19" class="st10" width="142.44" height="991.08"/>
					</g>
					<g class="st9">
						<rect x="1068.77" y="1833.19" class="st10" width="142.44" height="991.08"/>
					</g>
					<g class="st9">
						<rect x="1260.07" y="1833.19" class="st10" width="142.44" height="991.08"/>
					</g>
					<g class="st9">
						<rect x="1441.69" y="1833.19" class="st10" width="142.44" height="991.08"/>
					</g>
					<g class="st9">
						<rect x="1632.99" y="1833.19" class="st10" width="142.44" height="991.08"/>
					</g>
					<g class="st9">
						<rect x="1820.29" y="1833.19" class="st10" width="142.44" height="991.08"/>
					</g>
					<g class="st9">
						<rect x="2011.59" y="1833.19" class="st10" width="142.44" height="991.08"/>
					</g>
					<g class="st9">
						<rect x="2202.25" y="1833.19" class="st10" width="142.44" height="991.08"/>
					</g>
					<g class="st9">
						<rect x="2393.55" y="1833.19" class="st10" width="142.44" height="991.08"/>
					</g>
					<g class="st9">
						<rect x="2580.85" y="1833.19" class="st10" width="142.44" height="991.08"/>
					</g>
					<g class="st9">
						<rect x="2772.15" y="1833.19" class="st10" width="142.44" height="991.08"/>
					</g>
				</g>
				<g>
					<g>
						<linearGradient id="SVGID_4_" gradientUnits="userSpaceOnUse" x1="781.3443" y1="829.0505" x2="754.4711" y2="3301.2036">
							<stop  offset="0" style="stop-color:#4F52FF"/>
							<stop  offset="1" style="stop-color:#4042E2"/>
						</linearGradient>
						<rect x="691.03" y="2345.81" class="st11" width="142.44" height="478.45"/>
					</g>
					<g>
						<linearGradient id="SVGID_5_" gradientUnits="userSpaceOnUse" x1="971.8242" y1="831.2377" x2="944.9469" y2="3303.7751">
							<stop  offset="0" style="stop-color:#4F52FF"/>
							<stop  offset="1" style="stop-color:#4042E2"/>
						</linearGradient>
						<rect x="882.33" y="2199.34" class="st12" width="142.44" height="624.93"/>
					</g>
					<g>
						<linearGradient id="SVGID_6_" gradientUnits="userSpaceOnUse" x1="1160.5214" y1="834.439" x2="1133.6539" y2="3306.0688">
							<stop  offset="0" style="stop-color:#4F52FF"/>
							<stop  offset="1" style="stop-color:#4042E2"/>
						</linearGradient>
						<rect x="1069.64" y="2462.3" class="st13" width="142.44" height="361.96"/>
					</g>
					<g>
						<linearGradient id="SVGID_7_" gradientUnits="userSpaceOnUse" x1="1349.6624" y1="836.0143" x2="1322.7826" y2="3308.7739">
							<stop  offset="0" style="stop-color:#4F52FF"/>
							<stop  offset="1" style="stop-color:#4042E2"/>
						</linearGradient>
						<rect x="1260.94" y="2068.25" class="st14" width="142.44" height="756.02"/>
					</g>
					<g>
						<linearGradient id="SVGID_8_" gradientUnits="userSpaceOnUse" x1="1360.6598" y1="2508.1162" x2="1886.1556" y2="2078.6243">
							<stop  offset="0" style="stop-color:#4F52FF"/>
							<stop  offset="1" style="stop-color:#4042E2"/>
						</linearGradient>
						<rect x="1442.55" y="1941.68" class="st15" width="142.44" height="882.59"/>
					</g>
					<g>
						<linearGradient id="SVGID_9_" gradientUnits="userSpaceOnUse" x1="1725.1576" y1="842.4291" x2="1698.2982" y2="3313.3159">
							<stop  offset="0" style="stop-color:#4F52FF"/>
							<stop  offset="1" style="stop-color:#4042E2"/>
						</linearGradient>
						<rect x="1633.85" y="2555.33" class="st16" width="142.44" height="268.94"/>
					</g>
					<g>
						<linearGradient id="SVGID_10_" gradientUnits="userSpaceOnUse" x1="1910.9866" y1="843.7009" x2="1884.1115" y2="3316.0364">
							<stop  offset="0" style="stop-color:#4F52FF"/>
							<stop  offset="1" style="stop-color:#4042E2"/>
						</linearGradient>
						<rect x="1821.16" y="2286.71" class="st17" width="142.44" height="537.56"/>
					</g>
					<g>
						<linearGradient id="SVGID_11_" gradientUnits="userSpaceOnUse" x1="2101.7861" y1="846.0396" x2="2074.9087" y2="3318.5771">
							<stop  offset="0" style="stop-color:#4F52FF"/>
							<stop  offset="1" style="stop-color:#4042E2"/>
						</linearGradient>
						<rect x="2012.46" y="2199.34" class="st18" width="142.44" height="624.93"/>
					</g>
					<g>
						<linearGradient id="SVGID_12_" gradientUnits="userSpaceOnUse" x1="2293.1125" y1="848.8079" x2="2266.2388" y2="3321.0212">
							<stop  offset="0" style="stop-color:#4F52FF"/>
							<stop  offset="1" style="stop-color:#4042E2"/>
						</linearGradient>
						<rect x="2203.11" y="2328.73" class="st19" width="142.44" height="495.54"/>
					</g>
					<g>
						<linearGradient id="SVGID_13_" gradientUnits="userSpaceOnUse" x1="2482.6064" y1="850.7883" x2="2455.7258" y2="3323.6313">
							<stop  offset="0" style="stop-color:#4F52FF"/>
							<stop  offset="1" style="stop-color:#4042E2"/>
						</linearGradient>
						<rect x="2394.41" y="2000.44" class="st20" width="142.44" height="823.82"/>
					</g>
					<g>
						<linearGradient id="SVGID_14_" gradientUnits="userSpaceOnUse" x1="2670.2502" y1="853.3151" x2="2643.3706" y2="3326.0747">
							<stop  offset="0" style="stop-color:#4F52FF"/>
							<stop  offset="1" style="stop-color:#4042E2"/>
						</linearGradient>
						<rect x="2581.71" y="2068.25" class="st21" width="142.44" height="756.02"/>
					</g>
					<g>
						<linearGradient id="SVGID_15_" gradientUnits="userSpaceOnUse" x1="2862.0374" y1="855.9445" x2="2835.1592" y2="3328.5535">
							<stop  offset="0" style="stop-color:#4F52FF"/>
							<stop  offset="1" style="stop-color:#4042E2"/>
						</linearGradient>
						<rect x="2773.01" y="2163.15" class="st22" width="142.44" height="661.12"/>
					</g>
				</g>
			</g>
		</g>
		<g>
			<linearGradient id="SVGID_16_" gradientUnits="userSpaceOnUse" x1="2075.074" y1="1077.4841" x2="1956.7244" y2="1983.1189">
				<stop  offset="0" style="stop-color:#FF928E"/>
				<stop  offset="1" style="stop-color:#FE7062"/>
			</linearGradient>
			<path class="st23" d="M2717.2,1924.98H1302.71c-15.22,0-27.56-12.34-27.56-27.56V1254.2c0-15.22,12.34-27.56,27.56-27.56H2717.2
				c15.22,0,27.56,12.34,27.56,27.56v643.22C2744.76,1912.65,2732.42,1924.98,2717.2,1924.98z"/>
			<path class="st24" d="M2678.68,1894.85H1335.86c-15.22,0-27.56-12.34-27.56-27.56v-590.1c0-15.22,12.34-27.56,27.56-27.56
				h1342.82c15.22,0,27.56,12.34,27.56,27.56v590.1C2706.24,1882.51,2693.9,1894.85,2678.68,1894.85z"/>
			<g>
				<linearGradient id="SVGID_17_" gradientUnits="userSpaceOnUse" x1="1818.8124" y1="1053.1362" x2="1702.5975" y2="1942.4354">
					<stop  offset="0" style="stop-color:#FF928E"/>
					<stop  offset="1" style="stop-color:#FE7062"/>
				</linearGradient>
				<path class="st25" d="M1841.42,1709.18c29.57-43.61,46.84-96.23,46.84-152.88c0-104.03-58.25-194.45-143.9-240.45L1615.5,1556.3
					L1841.42,1709.18z"/>
				<linearGradient id="SVGID_18_" gradientUnits="userSpaceOnUse" x1="1794.0516" y1="1085.4966" x2="1695.2357" y2="1247.1953">
					<stop  offset="0" style="stop-color:#FF928E"/>
					<stop  offset="1" style="stop-color:#FE7062"/>
				</linearGradient>
				<path class="st26" d="M1744.37,1315.84c-38.38-20.61-82.26-32.32-128.87-32.32c-18.85,0-37.25,1.91-55.02,5.55l55.02,267.22
					L1744.37,1315.84z"/>
				<path class="st3" d="M1560.48,1289.08c-61.64,12.62-115.69,46.05-154.53,92.6l209.54,174.62L1560.48,1289.08z"/>
				<linearGradient id="SVGID_19_" gradientUnits="userSpaceOnUse" x1="1642.0364" y1="1163.6257" x2="1551.0847" y2="2421.782">
					<stop  offset="0" style="stop-color:#4F52FF"/>
					<stop  offset="1" style="stop-color:#4042E2"/>
				</linearGradient>
				<path class="st27" d="M1615.5,1556.3l-248.77,112.03c42.75,94.77,138.05,160.74,248.77,160.74
					c93.99,0,176.88-47.54,225.93-119.89L1615.5,1556.3z"/>
				<linearGradient id="SVGID_20_" gradientUnits="userSpaceOnUse" x1="1363.6298" y1="1468.9872" x2="1615.4985" y2="1468.9872">
					<stop  offset="0" style="stop-color:#DAE3FE"/>
					<stop  offset="1" style="stop-color:#E9EFFD"/>
				</linearGradient>
				<path class="st28" d="M1405.96,1381.68c-17.39,20.85-31.73,44.32-42.33,69.75c96.57,37.81,251.87,104.87,251.87,104.87
					L1405.96,1381.68z"/>
				<path class="st4" d="M1363.63,1451.43c-13.46,32.29-20.9,67.71-20.9,104.87c0,39.93,8.58,77.85,24,112.03l248.77-112.03
					C1615.5,1556.3,1460.2,1489.24,1363.63,1451.43z"/>
			</g>
			<g class="st29">
				<path class="st10" d="M2224.1,1384.34h-248.95c-10.41,0-18.86,6.51-18.86,14.55c0,8.04,8.44,14.55,18.86,14.55h248.95
					c10.41,0,18.86-6.51,18.86-14.55C2242.95,1390.86,2234.51,1384.34,2224.1,1384.34z"/>
				<path class="st10" d="M2224.1,1448.76h-248.95c-10.41,0-18.86,6.51-18.86,14.55c0,8.04,8.44,14.55,18.86,14.55h248.95
					c10.41,0,18.86-6.51,18.86-14.55C2242.95,1455.28,2234.51,1448.76,2224.1,1448.76z"/>
				<path class="st10" d="M2224.1,1706.46h-248.95c-10.41,0-18.86,6.51-18.86,14.55c0,8.04,8.44,14.55,18.86,14.55h248.95
					c10.41,0,18.86-6.51,18.86-14.55C2242.95,1712.97,2234.51,1706.46,2224.1,1706.46z"/>
				<path class="st10" d="M2224.1,1642.03h-248.95c-10.41,0-18.86,6.51-18.86,14.55c0,8.04,8.44,14.55,18.86,14.55h248.95
					c10.41,0,18.86-6.51,18.86-14.55C2242.95,1648.55,2234.51,1642.03,2224.1,1642.03z"/>
				<path class="st10" d="M2224.1,1577.61h-248.95c-10.41,0-18.86,6.51-18.86,14.55c0,8.04,8.44,14.55,18.86,14.55h248.95
					c10.41,0,18.86-6.51,18.86-14.55C2242.95,1584.13,2234.51,1577.61,2224.1,1577.61z"/>
			</g>
			<g class="st29">
				<path class="st10" d="M2631.51,1385.71h-248.95c-10.41,0-18.86,6.51-18.86,14.55c0,8.04,8.44,14.55,18.86,14.55h248.95
					c10.41,0,18.86-6.51,18.86-14.55C2650.37,1392.22,2641.92,1385.71,2631.51,1385.71z"/>
				<path class="st10" d="M2631.51,1450.13h-248.95c-10.41,0-18.86,6.51-18.86,14.55c0,8.04,8.44,14.55,18.86,14.55h248.95
					c10.41,0,18.86-6.51,18.86-14.55C2650.37,1456.64,2641.92,1450.13,2631.51,1450.13z"/>
				<path class="st10" d="M2631.51,1707.82h-248.95c-10.41,0-18.86,6.51-18.86,14.55c0,8.04,8.44,14.55,18.86,14.55h248.95
					c10.41,0,18.86-6.51,18.86-14.55C2650.37,1714.34,2641.92,1707.82,2631.51,1707.82z"/>
				<path class="st10" d="M2631.51,1643.4h-248.95c-10.41,0-18.86,6.51-18.86,14.55c0,8.04,8.44,14.55,18.86,14.55h248.95
					c10.41,0,18.86-6.51,18.86-14.55C2650.37,1649.91,2641.92,1643.4,2631.51,1643.4z"/>
				<path class="st10" d="M2631.51,1578.98h-248.95c-10.41,0-18.86,6.51-18.86,14.55c0,8.04,8.44,14.55,18.86,14.55h248.95
					c10.41,0,18.86-6.51,18.86-14.55C2650.37,1585.49,2641.92,1578.98,2631.51,1578.98z"/>
			</g>
		</g>
		<g>
			<linearGradient id="SVGID_21_" gradientUnits="userSpaceOnUse" x1="1163.2886" y1="943.0681" x2="475.4316" y2="2734.52">
				<stop  offset="0" style="stop-color:#FF928E"/>
				<stop  offset="1" style="stop-color:#FE7062"/>
			</linearGradient>
			<path class="st30" d="M705.33,1915.68h454.92c14.51,0,26.27-11.76,26.27-26.27v-681.37c0-14.48-11.72-26.23-26.2-26.27
				l-458.56-1.23c-14.59-0.04-26.41,11.82-26.34,26.41l3.64,682.6C679.14,1904,690.88,1915.68,705.33,1915.68z"/>
			<path class="st31" d="M727.62,1214.17l406.77,2.5c14.7,0.09,26.56,12.07,26.49,26.78l-2.84,611.55
				c-0.07,14.48-11.69,26.26-26.17,26.52l-395.23,7.21c-14.76,0.27-26.93-11.51-27.14-26.27l-8.7-621.27
				C700.6,1226.26,712.69,1214.08,727.62,1214.17z"/>
			<path class="st31" d="M744.16,1248.43v2.8c0,4.4,3.57,7.97,7.97,7.97h313.42c4.4,0,7.97-3.57,7.97-7.97v-2.8
				c0-4.4-3.57-7.97-7.97-7.97H752.14C747.73,1240.46,744.16,1244.03,744.16,1248.43z"/>
			<path class="st31" d="M779.13,1283.7L779.13,1283.7c0.23,4.17,3.64,7.46,7.82,7.54l274.1,5c4.46,0.08,8.12-3.51,8.12-7.97v-0.65
				c0-4.35-3.49-7.9-7.85-7.97l-274.1-4.34C782.6,1275.23,778.88,1279.09,779.13,1283.7z"/>
			<path class="st32" d="M751.15,1868.22c-12.54,0-22.87-10.12-23.09-22.69l-8.89-500.17c-0.23-12.71,9.93-23.26,22.65-23.5
				l370.09-7.2c6.2-0.08,12.02,2.17,16.47,6.45c4.45,4.28,6.96,10.03,7.08,16.21l9.54,502.93c0.12,6.2-2.19,12.07-6.51,16.52
				c-4.32,4.45-10.11,6.94-16.31,7.02l-370.73,4.45C751.34,1868.22,751.25,1868.22,751.15,1868.22z M1112.36,1322.97
				c-0.1,0-0.2,0-0.29,0l-370.09,7.2c-8.13,0.16-14.63,6.9-14.49,15.04l0,0l8.89,500.17c0.14,8.04,6.75,14.51,14.78,14.51
				c0.06,0,0.12,0,0.18,0l370.73-4.45c3.97-0.05,7.67-1.64,10.43-4.49c2.76-2.85,4.24-6.6,4.17-10.57l-9.54-502.93
				c-0.08-3.95-1.68-7.63-4.53-10.37C1119.82,1324.43,1116.19,1322.97,1112.36,1322.97z"/>
			<path class="st32" d="M1131.88,1373.29H728.13c-2.3,0-4.16-1.86-4.16-4.16s1.86-4.16,4.16-4.16h403.76c2.3,0,4.16,1.86,4.16,4.16
				S1134.18,1373.29,1131.88,1373.29z"/>
			<g>
				<path class="st33" d="M941.35,1771.41c-87.48,0-158.66-71.17-158.66-158.66c0-87.48,71.17-158.66,158.66-158.66
					c87.48,0,158.66,71.17,158.66,158.66C1100.01,1700.24,1028.84,1771.41,941.35,1771.41z M941.35,1503.85
					c-60.05,0-108.9,48.85-108.9,108.9c0,60.05,48.85,108.9,108.9,108.9c60.05,0,108.9-48.85,108.9-108.9
					C1050.26,1552.7,1001.4,1503.85,941.35,1503.85z"/>
				<linearGradient id="SVGID_22_" gradientUnits="userSpaceOnUse" x1="1159.3894" y1="966.9609" x2="1043.1747" y2="1856.2598">
					<stop  offset="0" style="stop-color:#FF928E"/>
					<stop  offset="1" style="stop-color:#FE7062"/>
				</linearGradient>
				<path class="st34" d="M1099.57,1600.88l-49.62,3.72c0.2,2.69,0.3,5.41,0.3,8.15c0,12.98-2.29,25.43-6.47,36.98l46.8,16.89
					c6.09-16.83,9.42-34.97,9.42-53.87C1100.01,1608.76,1099.86,1604.8,1099.57,1600.88z"/>
				<path class="st4" d="M941.35,1721.66c-60.05,0-108.9-48.85-108.9-108.9c0-60.05,48.85-108.9,108.9-108.9
					c9.15,0,18.03,1.14,26.53,3.27l12.12-48.26c-12.38-3.11-25.32-4.77-38.65-4.77c-87.48,0-158.66,71.17-158.66,158.66
					c0,87.49,71.17,158.66,158.66,158.66c68.58,0,127.13-43.74,149.24-104.79l-46.8-16.89
					C1028.62,1691.63,988.43,1721.66,941.35,1721.66z"/>
				<linearGradient id="SVGID_23_" gradientUnits="userSpaceOnUse" x1="1150.0684" y1="965.743" x2="1033.8533" y2="1855.0441">
					<stop  offset="0" style="stop-color:#FEBBBA"/>
					<stop  offset="1" style="stop-color:#FF928E"/>
				</linearGradient>
				<path class="st35" d="M1049.95,1604.61l49.62-3.72c-1.53-20.53-6.98-39.97-15.6-57.6l-44.73,21.79
					C1045.16,1577.17,1048.91,1590.52,1049.95,1604.61z"/>
			</g>
		</g>
		<g>
			<g>
				<linearGradient id="SVGID_24_" gradientUnits="userSpaceOnUse" x1="3086.8345" y1="2374.4348" x2="2930.1973" y2="3228.3616">
					<stop  offset="0" style="stop-color:#E1473D"/>
					<stop  offset="1" style="stop-color:#E9605A"/>
				</linearGradient>
				<circle class="st36" cx="2976.13" cy="2977.95" r="271.53"/>
				<linearGradient id="SVGID_25_" gradientUnits="userSpaceOnUse" x1="3204.012" y1="1234.1543" x2="3087.7971" y2="2123.4539">
					<stop  offset="0" style="stop-color:#FF928E"/>
					<stop  offset="1" style="stop-color:#FE7062"/>
				</linearGradient>
				<circle class="st37" cx="2976.13" cy="2977.95" r="262.5"/>
				<path class="st38" d="M2759.67,2874.45c-0.84,0-1.69-0.19-2.49-0.6c-2.73-1.38-3.83-4.71-2.45-7.44
					c42.44-84.08,127.28-136.32,221.4-136.32c15.02,0,30.06,1.35,44.71,4.02c3.01,0.55,5.01,3.43,4.46,6.44
					c-0.55,3.01-3.44,5-6.44,4.46c-13.99-2.55-28.37-3.84-42.72-3.84c-89.92,0-170.96,49.9-211.51,130.23
					C2763.65,2873.34,2761.7,2874.45,2759.67,2874.45z"/>
				
					<ellipse transform="matrix(0.7071 -0.7071 0.7071 0.7071 -1236.4126 2982.3838)" class="st38" cx="2981.85" cy="2983.67" rx="222.17" ry="222.17"/>
				<g>
					<linearGradient id="SVGID_26_" gradientUnits="userSpaceOnUse" x1="3212.843" y1="1235.3104" x2="3096.6284" y2="2124.6082">
						<stop  offset="0" style="stop-color:#FF928E"/>
						<stop  offset="1" style="stop-color:#FE7062"/>
					</linearGradient>
					<path class="st39" d="M2960.05,3148.84v-24.17c-25.2-1.01-50.12-6.96-67.82-14.7c-6.32-2.77-9.54-9.86-7.73-16.52l6.14-22.51
						c2.25-8.26,11.23-12.53,19.13-9.22c17.56,7.36,39.24,13.19,62.62,13.19c24.27,0,42.37-8.23,42.37-25.09
						c0-15.22-13.99-24.27-47.72-33.32c-48.13-13.16-82.68-34.14-82.68-76.51c0-38.26,27.97-67.46,76.51-75.28v-24.17
						c0-7.78,6.31-14.08,14.08-14.08h14.2c7.78,0,14.08,6.31,14.08,14.08v21.7c23.32,0.93,40.29,4.92,53.76,9.65
						c6.9,2.42,10.67,9.86,8.76,16.92l-5.65,20.82c-2.18,8.03-10.76,12.43-18.54,9.49c-12.4-4.69-29.93-9.57-52.73-9.57
						c-28.79,0-37.02,11.93-37.02,22.62c0,13.16,17.28,22.21,54.71,33.73c53.48,16.04,75.69,38.25,75.69,78.16
						c0,36.61-27.15,69.52-79.8,77.75v27.05c0,7.78-6.31,14.08-14.08,14.08h-14.2C2966.35,3162.92,2960.05,3156.62,2960.05,3148.84z
						"/>
				</g>
			</g>
			<g>
				<linearGradient id="SVGID_27_" gradientUnits="userSpaceOnUse" x1="2806.9475" y1="2323.0947" x2="2650.3103" y2="3177.0215">
					<stop  offset="0" style="stop-color:#E1473D"/>
					<stop  offset="1" style="stop-color:#E9605A"/>
				</linearGradient>
				<circle class="st40" cx="2686.83" cy="2977.95" r="271.53"/>
				<linearGradient id="SVGID_28_" gradientUnits="userSpaceOnUse" x1="2919.5649" y1="1196.9867" x2="2803.3501" y2="2086.2864">
					<stop  offset="0" style="stop-color:#FF928E"/>
					<stop  offset="1" style="stop-color:#FE7062"/>
				</linearGradient>
				<circle class="st41" cx="2686.83" cy="2977.95" r="262.5"/>
				<path class="st38" d="M2470.37,2874.45c-0.84,0-1.69-0.19-2.49-0.6c-2.73-1.38-3.83-4.71-2.45-7.44
					c42.44-84.08,127.28-136.32,221.4-136.32c15.02,0,30.06,1.35,44.71,4.02c3.01,0.55,5.01,3.43,4.46,6.44
					c-0.55,3.01-3.44,5-6.44,4.46c-14-2.55-28.37-3.84-42.72-3.84c-89.92,0-170.96,49.9-211.51,130.23
					C2474.34,2873.34,2472.39,2874.45,2470.37,2874.45z"/>
				
					<ellipse transform="matrix(0.7071 -0.7071 0.7071 0.7071 -1321.1479 2777.8147)" class="st38" cx="2692.54" cy="2983.67" rx="222.17" ry="222.17"/>
				<g>
					<linearGradient id="SVGID_29_" gradientUnits="userSpaceOnUse" x1="2928.3967" y1="1198.1368" x2="2812.1821" y2="2087.4346">
						<stop  offset="0" style="stop-color:#FF928E"/>
						<stop  offset="1" style="stop-color:#FE7062"/>
					</linearGradient>
					<path class="st42" d="M2670.74,3148.84v-24.17c-25.2-1.01-50.12-6.96-67.82-14.7c-6.32-2.77-9.54-9.86-7.73-16.52l6.14-22.51
						c2.25-8.26,11.23-12.53,19.13-9.22c17.56,7.36,39.24,13.19,62.62,13.19c24.27,0,42.37-8.23,42.37-25.09
						c0-15.22-13.99-24.27-47.72-33.32c-48.13-13.16-82.68-34.14-82.68-76.51c0-38.26,27.97-67.46,76.51-75.28v-24.17
						c0-7.78,6.31-14.08,14.08-14.08h14.2c7.78,0,14.08,6.31,14.08,14.08v21.7c23.32,0.93,40.29,4.92,53.76,9.65
						c6.9,2.42,10.67,9.86,8.76,16.92l-5.65,20.82c-2.18,8.03-10.76,12.43-18.54,9.49c-12.4-4.69-29.93-9.57-52.73-9.57
						c-28.79,0-37.02,11.93-37.02,22.62c0,13.16,17.28,22.21,54.71,33.73c53.48,16.04,75.69,38.25,75.69,78.16
						c0,36.61-27.15,69.52-79.8,77.75v27.05c0,7.78-6.31,14.08-14.08,14.08h-14.2C2677.05,3162.92,2670.74,3156.62,2670.74,3148.84z
						"/>
				</g>
			</g>
			<g>
				<linearGradient id="SVGID_30_" gradientUnits="userSpaceOnUse" x1="2527.0605" y1="2271.7544" x2="2370.4236" y2="3125.6812">
					<stop  offset="0" style="stop-color:#E1473D"/>
					<stop  offset="1" style="stop-color:#E9605A"/>
				</linearGradient>
				<circle class="st43" cx="2397.52" cy="2977.95" r="271.53"/>
				<linearGradient id="SVGID_31_" gradientUnits="userSpaceOnUse" x1="2635.1182" y1="1159.8138" x2="2518.9033" y2="2049.1135">
					<stop  offset="0" style="stop-color:#FF928E"/>
					<stop  offset="1" style="stop-color:#FE7062"/>
				</linearGradient>
				<circle class="st44" cx="2397.52" cy="2977.95" r="262.5"/>
				<path class="st38" d="M2181.06,2874.45c-0.84,0-1.69-0.19-2.49-0.6c-2.73-1.38-3.83-4.71-2.45-7.44
					c42.44-84.08,127.28-136.32,221.4-136.32c15.02,0,30.06,1.35,44.71,4.02c3.01,0.55,5.01,3.43,4.46,6.44
					c-0.55,3.01-3.44,5-6.44,4.46c-14-2.55-28.37-3.84-42.72-3.84c-89.92,0-170.96,49.9-211.51,130.23
					C2185.04,2873.34,2183.09,2874.45,2181.06,2874.45z"/>
				
					<ellipse transform="matrix(0.7071 -0.7071 0.7071 0.7071 -1405.8832 2573.2456)" class="st38" cx="2403.24" cy="2983.67" rx="222.17" ry="222.17"/>
				<g>
					<linearGradient id="SVGID_32_" gradientUnits="userSpaceOnUse" x1="2643.9495" y1="1160.9667" x2="2527.7349" y2="2050.2644">
						<stop  offset="0" style="stop-color:#FF928E"/>
						<stop  offset="1" style="stop-color:#FE7062"/>
					</linearGradient>
					<path class="st45" d="M2381.44,3148.84v-24.17c-25.2-1.01-50.12-6.96-67.82-14.7c-6.32-2.77-9.54-9.86-7.73-16.52l6.14-22.51
						c2.25-8.26,11.24-12.53,19.13-9.22c17.56,7.36,39.24,13.19,62.62,13.19c24.27,0,42.37-8.23,42.37-25.09
						c0-15.22-13.99-24.27-47.72-33.32c-48.13-13.16-82.68-34.14-82.68-76.51c0-38.26,27.97-67.46,76.51-75.28v-24.17
						c0-7.78,6.31-14.08,14.08-14.08h14.2c7.78,0,14.08,6.31,14.08,14.08v21.7c23.32,0.93,40.29,4.92,53.76,9.65
						c6.9,2.42,10.67,9.86,8.76,16.92l-5.65,20.82c-2.18,8.03-10.76,12.43-18.54,9.49c-12.4-4.69-29.93-9.57-52.73-9.57
						c-28.79,0-37.02,11.93-37.02,22.62c0,13.16,17.28,22.21,54.71,33.73c53.48,16.04,75.69,38.25,75.69,78.16
						c0,36.61-27.15,69.52-79.8,77.75v27.05c0,7.78-6.31,14.08-14.08,14.08h-14.2C2387.74,3162.92,2381.44,3156.62,2381.44,3148.84z
						"/>
				</g>
			</g>
			<g>
				<linearGradient id="SVGID_33_" gradientUnits="userSpaceOnUse" x1="2150.3867" y1="2202.6602" x2="1993.7488" y2="3056.5913">
					<stop  offset="0" style="stop-color:#E1473D"/>
					<stop  offset="1" style="stop-color:#E9605A"/>
				</linearGradient>
				<circle class="st46" cx="2023.68" cy="2893.42" r="356.06"/>
				<linearGradient id="SVGID_34_" gradientUnits="userSpaceOnUse" x1="2256.6921" y1="1110.3595" x2="2140.4778" y2="1999.6562">
					<stop  offset="0" style="stop-color:#FF928E"/>
					<stop  offset="1" style="stop-color:#FE7062"/>
				</linearGradient>
				<circle class="st47" cx="2023.68" cy="2893.42" r="344.22"/>
				<path class="st38" d="M1739.83,2755.97c-0.84,0-1.69-0.19-2.49-0.6c-2.73-1.38-3.83-4.71-2.45-7.44
					c26.56-52.62,67.03-97.04,117.02-128.45c51.39-32.29,110.79-49.36,171.77-49.36c19.59,0,39.21,1.77,58.32,5.25
					c3.01,0.55,5.01,3.43,4.46,6.44c-0.55,3.01-3.45,5-6.44,4.46c-18.45-3.36-37.4-5.07-56.33-5.07
					c-118.56,0-225.43,65.8-278.9,171.72C1743.81,2754.85,1741.86,2755.97,1739.83,2755.97z"/>
				
					<ellipse transform="matrix(0.7071 -0.7071 0.7071 0.7071 -1456.3398 2285.9202)" class="st38" cx="2031.18" cy="2900.92" rx="291.34" ry="291.34"/>
				<g>
					<linearGradient id="SVGID_35_" gradientUnits="userSpaceOnUse" x1="2268.2732" y1="1111.8705" x2="2152.0583" y2="2001.1699">
						<stop  offset="0" style="stop-color:#FF928E"/>
						<stop  offset="1" style="stop-color:#FE7062"/>
					</linearGradient>
					<path class="st48" d="M2002.59,3117.51v-31.7c-33.04-1.32-65.73-9.12-88.94-19.28c-8.29-3.63-12.51-12.93-10.13-21.66
						l8.05-29.52c2.95-10.83,14.73-16.43,25.09-12.09c23.03,9.65,51.46,17.29,82.12,17.29c31.83,0,55.56-10.79,55.56-32.91
						c0-19.96-18.34-31.82-62.57-43.69c-63.11-17.26-108.43-44.77-108.43-100.34c0-50.17,36.68-88.47,100.33-98.71v-31.7
						c0-10.2,8.27-18.47,18.47-18.47h18.62c10.2,0,18.47,8.27,18.47,18.47v28.46c30.58,1.22,52.83,6.45,70.49,12.66
						c9.05,3.18,13.99,12.93,11.48,22.19l-7.41,27.3c-2.85,10.53-14.11,16.3-24.31,12.44c-16.26-6.15-39.25-12.55-69.14-12.55
						c-37.76,0-48.55,15.64-48.55,29.67c0,17.26,22.66,29.13,71.74,44.23c70.13,21.04,99.26,50.16,99.26,102.49
						c0,48.01-35.6,91.16-104.65,101.95v35.47c0,10.2-8.27,18.47-18.47,18.47h-18.63
						C2010.86,3135.98,2002.59,3127.71,2002.59,3117.51z"/>
				</g>
			</g>
		</g>
		<g>
			
				<linearGradient id="SVGID_36_" gradientUnits="userSpaceOnUse" x1="-2310.9131" y1="1714.4791" x2="-2217.1272" y2="1949.7394" gradientTransform="matrix(-1 0 0 1 -1165.4333 0)">
				<stop  offset="0" style="stop-color:#09005D"/>
				<stop  offset="1" style="stop-color:#1A0F91"/>
			</linearGradient>
			<path class="st49" d="M1089.87,1841.03c0,0-31.62,15.38-37.43,33.05c-4.66,14.18-39.63,16-43.08,43.88
				c-1.78,14.39-12.43,25.92-26.77,28.12c-35.71,5.47-90.73,24.01-99.54,86.01c-6.72,47.32,17.4,65.26,42.72,71.47
				c18.59,4.56,30.95,22.65,27.19,41.42c-3.61,18.01,1.77,38.82,32.97,55.28c69.9,36.88,139.71-87.38,139.71-87.38l14.31-216.98
				L1089.87,1841.03z"/>
			<linearGradient id="SVGID_37_" gradientUnits="userSpaceOnUse" x1="1169.0562" y1="2142.2002" x2="1526.1398" y2="1731.2167">
				<stop  offset="0" style="stop-color:#FEBBBA"/>
				<stop  offset="1" style="stop-color:#FF928E"/>
			</linearGradient>
			<path class="st50" d="M1470.23,1789.59c0,0-139.57,220.76-305.53,263.4c0,0,32.34,92.11,57.3,102.65
				c0,0,204.18-170.37,256.65-334.68L1470.23,1789.59z"/>
			
				<linearGradient id="SVGID_38_" gradientUnits="userSpaceOnUse" x1="-1998.0276" y1="3773.3633" x2="-2078.8726" y2="4415.0732" gradientTransform="matrix(-1 0 0 1 -1165.4333 0)">
				<stop  offset="0" style="stop-color:#09005D"/>
				<stop  offset="1" style="stop-color:#1A0F91"/>
			</linearGradient>
			<path class="st51" d="M802.54,3201.57l-4.52,37.19c-0.86,7.05-6.41,12.63-13.47,13.44c-11.92,1.36-31.05,2.76-49.77,0.78
				c-8.22-0.87-13.55-9.19-11.05-17.06c4.56-14.36,12.91-35.9,24.95-48.59h41.25C797.56,3187.32,803.46,3194,802.54,3201.57z"/>
			
				<linearGradient id="SVGID_39_" gradientUnits="userSpaceOnUse" x1="-2304.114" y1="3534.25" x2="-2189.6689" y2="2196.6733" gradientTransform="matrix(-1 0 0 1 -1165.4333 0)">
				<stop  offset="0" style="stop-color:#FEBBBA"/>
				<stop  offset="1" style="stop-color:#FF928E"/>
			</linearGradient>
			<path class="st52" d="M1125.64,2765.95l6.96,40.96c0,0-23.32,236.17-27.46,330.64c-0.65,14.81,3.18,29.45,10.96,42.07
				l40.54,65.84l-103.04-60.8l-2.05-12.57l16.87-23.19l-22.09-264.57c-1.3-15.54,1.91-31.13,9.24-44.9l21.31-40.04L1125.64,2765.95z
				"/>
			
				<linearGradient id="SVGID_40_" gradientUnits="userSpaceOnUse" x1="-2337.7334" y1="3730.5649" x2="-2418.5784" y2="4372.2749" gradientTransform="matrix(-1 0 0 1 -1165.4333 0)">
				<stop  offset="0" style="stop-color:#09005D"/>
				<stop  offset="1" style="stop-color:#1A0F91"/>
			</linearGradient>
			<path class="st53" d="M1163.42,3255h-32.88c-6.15,0-11.96-2.83-15.71-7.7c-10.25-13.32-31.49-39.31-41.64-39.98
				c-13.67-0.91-11.92,47.69-11.92,47.69h-7.66l-9.71-60.39c-2.44-15.2,5.11-30.25,18.76-37.37c0,0,3.13,23.11,20.07,33.33
				c16.94,10.22,68.95,46.83,68.95,46.83s6.37-0.91,13.36,0.36C1175.41,3239.64,1173.96,3255,1163.42,3255z"/>
			
				<linearGradient id="SVGID_41_" gradientUnits="userSpaceOnUse" x1="-2073.9009" y1="3554.1523" x2="-1959.4257" y2="2216.2241" gradientTransform="matrix(-1 0 0 1 -1165.4333 0)">
				<stop  offset="0" style="stop-color:#FEBBBA"/>
				<stop  offset="1" style="stop-color:#FF928E"/>
			</linearGradient>
			<path class="st54" d="M984.51,2785.41c0,0-136.59,259.1-158.31,318.26c-21.71,59.16-29.32,108.51-29.61,113.18
				c-0.46,7.3-9.54,14.31-34.57,14.31c-12.92,0-19.25-5.18-22.35-10.19c-2.64-4.28-2.78-9.63-0.55-14.14
				c7.9-15.99,32.98-67.09,42.26-90.27c11.09-27.67,34.94-153.08,48.02-196.68c13.08-43.6,27.86-90.9,84.83-134.47
				C914.22,2785.41,953.32,2747.11,984.51,2785.41z"/>
			<linearGradient id="SVGID_42_" gradientUnits="userSpaceOnUse" x1="2836.1216" y1="642.4304" x2="1892.8793" y2="1518.2982">
				<stop  offset="0" style="stop-color:#FF928E"/>
				<stop  offset="1" style="stop-color:#FE7062"/>
			</linearGradient>
			<path class="st55" d="M1070.8,2360.85c35.23-149.3-54.03-233.75-54.03-233.75c56.32-54.06,158.94-78.66,158.94-78.66
				s97.92,71.59,86.3,127.62c-6.81,32.84-68.83,196.71-68.83,196.71S1135.83,2399.91,1070.8,2360.85z"/>
			<linearGradient id="SVGID_43_" gradientUnits="userSpaceOnUse" x1="1306.5569" y1="2383.7842" x2="482.9449" y2="3161.9194">
				<stop  offset="0" style="stop-color:#E1473D"/>
				<stop  offset="1" style="stop-color:#E9605A"/>
			</linearGradient>
			<path class="st56" d="M992.67,2434.77c14.34-43.2,78.12-73.92,78.12-73.92c65.04,39.06,122.39,11.92,122.39,11.92
				s12.86,49.16,3.98,94.84c-8.88,45.69-64.57,339.29-64.57,339.29c-87.75,17.78-222.71-17.89-222.71-17.89
				C965.78,2689.78,978.34,2477.97,992.67,2434.77z"/>
			
				<linearGradient id="SVGID_44_" gradientUnits="userSpaceOnUse" x1="-2316.6648" y1="2215.7998" x2="-2295.1667" y2="2058.5249" gradientTransform="matrix(-1 0 0 1 -1165.4333 0)">
				<stop  offset="0" style="stop-color:#FEBBBA"/>
				<stop  offset="1" style="stop-color:#FF928E"/>
			</linearGradient>
			<path class="st57" d="M1111.69,1949.78l-28.65,128.68c-2.74,11.33,7.59,9.48,19.05,7.32c18.77-3.54,42.95-10.82,51.04-25.43
				c0.82-1.49,1.23-3.17,1.47-4.85l12.31-89.23c0.98-7.08-2.85-13.95-9.38-16.85l-23.75-10.53
				C1124.63,1934.84,1114.05,1940.05,1111.69,1949.78z"/>
			<g>
				
					<linearGradient id="SVGID_45_" gradientUnits="userSpaceOnUse" x1="-2498.4683" y1="1672.1208" x2="-2310.8882" y2="1338.2913" gradientTransform="matrix(-0.9809 -0.1943 -0.1943 0.9809 -936.3432 -99.2406)">
					<stop  offset="0" style="stop-color:#FEBBBA"/>
					<stop  offset="1" style="stop-color:#FF928E"/>
				</linearGradient>
				<path class="st58" d="M1166.56,1832.47c0,0,30.5,20.64,43.6,73.22c13.1,52.57-8.19,71.43-30.02,70.28s-53.48-7.91-80.91-45.62
					C1071.81,1892.63,1126.6,1807.25,1166.56,1832.47z"/>
				
					<linearGradient id="SVGID_46_" gradientUnits="userSpaceOnUse" x1="-2458.1274" y1="1381.4084" x2="-2364.3376" y2="1616.6783" gradientTransform="matrix(-0.9809 -0.1943 -0.1943 0.9809 -936.3432 -99.2406)">
					<stop  offset="0" style="stop-color:#09005D"/>
					<stop  offset="1" style="stop-color:#1A0F91"/>
				</linearGradient>
				<path class="st59" d="M1126.89,1909.14c0,0-11.17-75.33,51.37-63.81l12.65,13.17c0,0,30.61-34.48-3.26-60.54
					c-33.88-26.06-80.89-19.39-106.9,28.06c-26.01,47.45-35.45,80.79-13.65,110.27c21.8,29.48,38.2,4.2,38.2,4.2
					s-10-25.52-1.7-36.47c8.3-10.95,19,6.37,19,6.37L1126.89,1909.14z"/>
				
					<linearGradient id="SVGID_47_" gradientUnits="userSpaceOnUse" x1="-2458.5403" y1="1694.5592" x2="-2270.9604" y2="1360.7301" gradientTransform="matrix(-0.9809 -0.1943 -0.1943 0.9809 -936.3432 -99.2406)">
					<stop  offset="0" style="stop-color:#FEBBBA"/>
					<stop  offset="1" style="stop-color:#FF928E"/>
				</linearGradient>
				<path class="st60" d="M1118.34,1915.59c0,0-5.52-38.76-25.31-27.68c-19.79,11.08,7.13,36.21,17.93,44.75L1118.34,1915.59z"/>
			</g>
			<g>
				<linearGradient id="SVGID_48_" gradientUnits="userSpaceOnUse" x1="1175.7502" y1="2148.0159" x2="1532.8344" y2="1737.032">
					<stop  offset="0" style="stop-color:#FEBBBA"/>
					<stop  offset="1" style="stop-color:#FF928E"/>
				</linearGradient>
				<path class="st61" d="M1469.27,1835.04c0.42,4.55-16.51,7.7-21.9-11.71c1.48-8.43,4.11-45.34,10.57-51.07
					c34.42-30.54,95.79-64.89,95.79-64.89c6.86,10.48-2.14,17.38-2.14,17.38l-30.64,20.68c3.2,10.59,7.86,19.94,8.39,32.03
					c0.4,9.15-2.98,18.11-9.06,25.05c-6.1,6.97-14.31,15.96-21.7,22.79C1484.58,1838.22,1469.27,1835.04,1469.27,1835.04z"/>
				<linearGradient id="SVGID_49_" gradientUnits="userSpaceOnUse" x1="1537.4037" y1="1693.817" x2="1658.6779" y2="1473.7272">
					<stop  offset="0" style="stop-color:#FEBBBA"/>
					<stop  offset="1" style="stop-color:#FF928E"/>
				</linearGradient>
				<path class="st62" d="M1485.91,1819.99l-4.68-1.93c0.62-1.52,15.32-37.24,22.44-44.67c2.7-2.82,4.01-5.23,3.89-7.18
					c-0.06-1.05-0.58-2.09-1.57-3.15l-24.79,13.26l-10.95,17.14l-4.27-2.73l11.66-18.26l29.04-15.53l1.31,1.07
					c2.94,2.4,4.46,4.98,4.63,7.89c0.21,3.46-1.51,7.06-5.28,11C1501.97,1782.49,1490.05,1809.9,1485.91,1819.99z"/>
			</g>
			<g>
				
					<linearGradient id="SVGID_50_" gradientUnits="userSpaceOnUse" x1="-3556.188" y1="2253.8098" x2="-3762.3679" y2="2310.3184" gradientTransform="matrix(-0.9988 -0.0494 -0.0494 0.9988 -2381.2668 -55.0328)">
					<stop  offset="0" style="stop-color:#09005D"/>
					<stop  offset="1" style="stop-color:#1A0F91"/>
				</linearGradient>
				<path class="st63" d="M1102.72,2439.62c0.2,0.01,0.39,0.01,0.59,0.01l255.92-0.28c6.33-0.01,11.45-5.09,11.44-11.35
					c-0.01-6.26-5.16-11.43-11.47-11.32l-255.92,0.28c-6.33,0.01-11.45,5.09-11.44,11.34
					C1091.85,2434.37,1096.67,2439.32,1102.72,2439.62z"/>
				
					<linearGradient id="SVGID_51_" gradientUnits="userSpaceOnUse" x1="-3761.6506" y1="2240.1814" x2="-3907.0847" y2="2393.896" gradientTransform="matrix(-1 0 0 1 -2422.7358 0)">
					<stop  offset="0" style="stop-color:#09005D"/>
					<stop  offset="1" style="stop-color:#1A0F91"/>
				</linearGradient>
				<path class="st64" d="M1589.29,2209.71h-213.13c-15.72,0-30.03,8.98-36.74,23.05l-98.53,206.72h264.87
					c10.13,0,19.24-6.13,22.96-15.45l76.41-191.29C1609.54,2221.69,1601.31,2209.71,1589.29,2209.71z"/>
				
					<linearGradient id="SVGID_52_" gradientUnits="userSpaceOnUse" x1="-3849.8389" y1="2278.6011" x2="-3915.5793" y2="2377.5986" gradientTransform="matrix(-1 0 0 1 -2422.7358 0)">
					<stop  offset="0" style="stop-color:#4F52FF"/>
					<stop  offset="1" style="stop-color:#4042E2"/>
				</linearGradient>
				<path class="st65" d="M1439.14,2315.71c-4.62,14.2-1.21,27.99,7.62,30.8c8.83,2.81,19.73-6.42,24.35-20.62
					c4.62-14.2,1.21-27.99-7.62-30.8S1443.76,2301.51,1439.14,2315.71z"/>
			</g>
			<linearGradient id="SVGID_53_" gradientUnits="userSpaceOnUse" x1="756.2769" y1="2419.2195" x2="1205.8905" y2="2231.1292">
				<stop  offset="0" style="stop-color:#FEBBBA"/>
				<stop  offset="1" style="stop-color:#FF928E"/>
			</linearGradient>
			<path class="st66" d="M1016.4,2127.41c-34.92,35.24-79.22,191.42-57.24,217.51c19.35,30.37,85.25,71.71,148,71.77h92.58
				c-38.9-41.34-65.69-51.82-97.6-22.91c-25.31-10.82-58.14-52.72-80.05-71.43c-8.6-7.35-10.63-19.88-4.88-29.61
				c17.41-29.47,39.23-59.76,46.17-89.1C1064.89,2169.25,1039.45,2129.89,1016.4,2127.41z"/>
		</g>
		<g>
			<g>
				<linearGradient id="SVGID_54_" gradientUnits="userSpaceOnUse" x1="1406.8688" y1="1000.3195" x2="1289.3733" y2="1899.4185">
					<stop  offset="0" style="stop-color:#FF928E"/>
					<stop  offset="1" style="stop-color:#FE7062"/>
				</linearGradient>
				<path class="st67" d="M1890.74,1120.8H946.97c-5.7,0-10.33-4.62-10.33-10.33v-403.8c0-5.7,4.62-10.33,10.33-10.33h943.77
					c5.7,0,10.33,4.62,10.33,10.33v403.8C1901.07,1116.18,1896.45,1120.8,1890.74,1120.8z"/>
				<path class="st68" d="M1867.41,1100.26h-897.1c-5.7,0-10.33-4.62-10.33-10.33v-360.8c0-5.7,4.62-10.33,10.33-10.33h897.1
					c5.7,0,10.33,4.62,10.33,10.33v360.8C1877.74,1095.64,1873.11,1100.26,1867.41,1100.26z"/>
			</g>
			<g>
				<circle class="st10" cx="1116.09" cy="862.74" r="115.45"/>
				<circle class="st10" cx="1402.02" cy="862.74" r="115.45"/>
				
					<ellipse transform="matrix(0.7071 -0.7071 0.7071 0.7071 -118.039 1448.0646)" class="st10" cx="1688.95" cy="866.52" rx="115.45" ry="115.45"/>
				<g>
					<linearGradient id="SVGID_55_" gradientUnits="userSpaceOnUse" x1="1716.9619" y1="32.3638" x2="1144.2787" y2="827.3822">
						<stop  offset="0" style="stop-color:#FF928E"/>
						<stop  offset="1" style="stop-color:#FE7062"/>
					</linearGradient>
					<path class="st69" d="M1184.69,838.34c3.57,8.69,5.56,18.2,5.56,28.18c0,40.96-33.2,74.16-74.16,74.16
						c-40.96,0-74.16-33.2-74.16-74.16c0-40.96,33.2-74.16,74.16-74.16c1.25,0,2.5,0.03,3.74,0.09v-18.8
						c-1.24-0.05-2.49-0.08-3.74-0.08c-51.33,0-92.94,41.61-92.94,92.94c0,51.33,41.61,92.94,92.94,92.94
						c51.33,0,92.94-41.61,92.94-92.94c0-12.64-2.53-24.69-7.1-35.67L1184.69,838.34z"/>
					<linearGradient id="SVGID_56_" gradientUnits="userSpaceOnUse" x1="1902.1576" y1="165.768" x2="1329.4742" y2="960.7864">
						<stop  offset="0" style="stop-color:#FF928E"/>
						<stop  offset="1" style="stop-color:#FE7062"/>
					</linearGradient>
					<path class="st70" d="M1441.27,929.26c-11.44,7.22-24.98,11.42-39.51,11.42c-40.96,0-74.16-33.2-74.16-74.16
						c0-40.96,33.2-74.16,74.16-74.16c1.25,0,2.5,0.03,3.74,0.09v-18.8c-1.24-0.05-2.49-0.08-3.74-0.08
						c-51.33,0-92.94,41.61-92.94,92.94c0,51.33,41.61,92.94,92.94,92.94c17.91,0,34.64-5.07,48.83-13.85L1441.27,929.26z"/>
					<linearGradient id="SVGID_57_" gradientUnits="userSpaceOnUse" x1="2095.136" y1="304.7775" x2="1522.453" y2="1099.7954">
						<stop  offset="0" style="stop-color:#FF928E"/>
						<stop  offset="1" style="stop-color:#FE7062"/>
					</linearGradient>
					<path class="st71" d="M1751.82,908.21c-13.35,19.59-35.83,32.46-61.33,32.46c-40.96,0-74.16-33.2-74.16-74.16
						c0-40.96,33.2-74.16,74.16-74.16c1.25,0,2.5,0.03,3.74,0.09v-18.8c-1.24-0.05-2.49-0.08-3.74-0.08
						c-51.33,0-92.94,41.61-92.94,92.94c0,51.33,41.61,92.94,92.94,92.94c31.75,0,59.78-15.93,76.55-40.23L1751.82,908.21z"/>
				</g>
				<g>
					<path class="st68" d="M1210.98,1027.09h-188.14c-11.81,0-21.38,9.57-21.38,21.38c0,11.81,9.57,21.38,21.38,21.38h188.14
						c11.81,0,21.38-9.57,21.38-21.38C1232.36,1036.67,1222.79,1027.09,1210.98,1027.09z"/>
					<path class="st68" d="M1497.91,1027.09h-188.14c-11.81,0-21.38,9.57-21.38,21.38c0,11.81,9.57,21.38,21.38,21.38h188.14
						c11.81,0,21.38-9.57,21.38-21.38C1519.29,1036.67,1509.71,1027.09,1497.91,1027.09z"/>
					<path class="st68" d="M1594.88,1069.86h188.14c11.81,0,21.38-9.57,21.38-21.38c0-11.81-9.57-21.38-21.38-21.38h-188.14
						c-11.81,0-21.38,9.57-21.38,21.38C1573.5,1060.28,1583.07,1069.86,1594.88,1069.86z"/>
				</g>
			</g>
		</g>
	</g>
</g>
</svg>
